
      <svg data-logo="logo" xmlns="http://www.w3.org/2000/svg" viewBox="0 0 294.1699981689453 42">
        <g id="logogram" transform="
    translate(0, 0.5)
    rotate(0 20.5 20.5)
    
  "><path d="M20.207 28.27C15.7888 28.27 12.207 24.6883 12.207 20.27C12.207 15.8517 15.7888 12.27 20.207 12.27C24.6253 12.27 28.207 15.8517 28.207 20.27C28.207 24.6883 24.6253 28.27 20.207 28.27Z" fill="#51A3EE"/><path d="M4.70875 23.0028C2.39042 23.4116 0.801324 25.6511 1.69126 27.8305C2.93371 30.8732 4.91589 33.5842 7.48563 35.7026C11.1602 38.7315 15.7949 40.35 20.5562 40.267C25.3175 40.1839 29.893 38.4046 33.4597 35.2491C35.9538 33.0424 37.8402 30.2639 38.9758 27.1797C39.7891 24.9705 38.1227 22.7879 35.7915 22.4603C33.4605 22.1327 31.3674 23.8295 30.2159 25.8828C29.5918 26.9957 28.7815 28.0055 27.8109 28.8643C25.7645 30.6748 23.1393 31.6956 20.4075 31.7433C17.6757 31.7909 15.0165 30.8624 12.9082 29.1244C11.9081 28.3 11.0631 27.3192 10.4005 26.2287C9.17809 24.2168 7.02709 22.594 4.70875 23.0028Z" fill="#51A3EE"/><path d="M40.0524 22.7693C40.1545 21.9505 40.2071 21.1164 40.2071 20.27C40.2071 9.2243 31.2528 0.269989 20.207 0.269989C9.16134 0.269989 0.207031 9.2243 0.207031 20.27C0.207031 21.3563 0.293631 22.4223 0.460311 23.4616C1.37895 22.204 2.81271 21.3063 4.36138 21.0332C6.03697 20.7377 7.55981 21.1441 8.8474 21.9037C8.77133 21.3701 8.73197 20.8247 8.73197 20.27C8.73197 13.9325 13.8696 8.79493 20.207 8.79493C26.5445 8.79493 31.6821 13.9325 31.6821 20.27C31.6821 20.6879 31.6597 21.1005 31.6162 21.5068C32.8766 20.7024 34.3846 20.2428 36.0698 20.4797C37.6266 20.6985 39.0904 21.5452 40.0524 22.7693Z" fill="#0E4F8B"/></g>
        <g id="logotype" transform="translate(47, 0.92822265625)"><path fill="#21387B" d="M25.38 33L8.31 33L8.31 7.54L25.35 7.54L25.35 11.86L13.52 11.86L13.52 18.01L24.44 18.01L24.44 22.27L13.52 22.27L13.52 28.68L25.38 28.68L25.38 33ZM31.14 33L25.70 33L33.10 21.19L33.09 25.19L26.08 13.89L31.62 13.89L33.34 16.92Q34.16 18.39 34.82 19.83Q35.48 21.28 36.16 22.64L36.16 22.64L34.21 22.64Q34.91 21.29 35.56 19.84Q36.21 18.39 37.07 16.92L37.07 16.92L38.86 13.89L44.30 13.89L37.15 25.24L37.15 21.29L44.57 33L39.07 33L36.95 29.39Q36.11 27.94 35.44 26.49Q34.76 25.04 34.06 23.70L34.06 23.70L36.02 23.70Q35.36 25.04 34.72 26.49Q34.08 27.94 33.26 29.39L33.26 29.39L31.14 33ZM50.53 33.38L50.53 33.38Q48.72 33.38 47.28 32.74Q45.83 32.09 45.00 30.82Q44.17 29.55 44.17 27.65L44.17 27.65Q44.17 26.06 44.76 24.98Q45.35 23.91 46.37 23.26Q47.39 22.61 48.68 22.27Q49.97 21.93 51.39 21.79L51.39 21.79Q53.04 21.62 54.06 21.47Q55.08 21.33 55.55 21.01Q56.02 20.70 56.02 20.08L56.02 20.08L56.02 19.99Q56.02 19.17 55.68 18.61Q55.33 18.05 54.67 17.75Q54.00 17.45 53.03 17.45L53.03 17.45Q52.04 17.45 51.30 17.75Q50.57 18.05 50.10 18.54Q49.64 19.04 49.42 19.65L49.42 19.65L44.72 18.87Q45.22 17.21 46.36 16.05Q47.51 14.88 49.21 14.27Q50.91 13.65 53.03 13.65L53.03 13.65Q54.58 13.65 56.03 14.02Q57.49 14.39 58.64 15.16Q59.79 15.93 60.47 17.16Q61.14 18.39 61.14 20.13L61.14 20.13L61.14 33L56.29 33L56.29 30.35L56.12 30.35Q55.66 31.24 54.89 31.91Q54.12 32.59 53.04 32.98Q51.95 33.38 50.53 33.38ZM51.98 29.77L51.98 29.77Q53.20 29.77 54.11 29.29Q55.03 28.81 55.54 27.99Q56.05 27.17 56.05 26.16L56.05 26.16L56.05 24.10Q55.83 24.27 55.37 24.40Q54.91 24.54 54.34 24.64Q53.78 24.75 53.23 24.83Q52.69 24.92 52.26 24.97L52.26 24.97Q51.32 25.10 50.60 25.41Q49.88 25.72 49.49 26.22Q49.10 26.73 49.10 27.51L49.10 27.51Q49.10 28.25 49.47 28.75Q49.85 29.26 50.49 29.51Q51.13 29.77 51.98 29.77ZM68.37 33L63.24 33L63.24 13.89L68.00 13.89L68.25 18.64L67.88 18.64Q68.32 16.88 69.18 15.77Q70.05 14.66 71.21 14.13Q72.37 13.60 73.65 13.60L73.65 13.60Q75.72 13.60 76.99 14.91Q78.25 16.22 78.85 18.95L78.85 18.95L78.25 18.95Q78.68 17.12 79.64 15.94Q80.61 14.75 81.93 14.18Q83.26 13.60 84.71 13.60L84.71 13.60Q86.47 13.60 87.85 14.37Q89.22 15.14 90.02 16.59Q90.81 18.03 90.81 20.11L90.81 20.11L90.81 33L85.68 33L85.68 21.09Q85.68 19.46 84.80 18.68Q83.92 17.89 82.64 17.89L82.64 17.89Q81.68 17.89 80.98 18.31Q80.27 18.73 79.88 19.48Q79.50 20.23 79.50 21.24L79.50 21.24L79.50 33L74.54 33L74.54 20.95Q74.54 19.55 73.71 18.72Q72.88 17.89 71.57 17.89L71.57 17.89Q70.66 17.89 69.94 18.30Q69.21 18.71 68.79 19.51Q68.37 20.30 68.37 21.45L68.37 21.45L68.37 33ZM98.04 40.14L92.91 40.14L92.91 13.89L97.95 13.89L97.95 17.11L98.19 17.11Q98.55 16.35 99.21 15.55Q99.87 14.75 100.94 14.20Q102.02 13.65 103.64 13.65L103.64 13.65Q105.76 13.65 107.52 14.75Q109.28 15.84 110.33 18.03Q111.38 20.22 111.38 23.48L111.38 23.48Q111.38 26.66 110.36 28.86Q109.33 31.05 107.57 32.19Q105.81 33.32 103.61 33.32L103.61 33.32Q102.05 33.32 100.98 32.79Q99.90 32.27 99.23 31.49Q98.55 30.71 98.19 29.94L98.19 29.94L98.04 29.94L98.04 40.14ZM102.04 29.21L102.04 29.21Q103.37 29.21 104.28 28.47Q105.20 27.74 105.67 26.44Q106.14 25.14 106.14 23.46L106.14 23.46Q106.14 21.79 105.67 20.51Q105.20 19.23 104.29 18.49Q103.39 17.76 102.04 17.76L102.04 17.76Q100.72 17.76 99.80 18.47Q98.88 19.17 98.40 20.45Q97.92 21.72 97.92 23.46L97.92 23.46Q97.92 25.19 98.41 26.48Q98.89 27.77 99.82 28.49Q100.74 29.21 102.04 29.21ZM112.70 7.54L117.83 7.54L117.83 33L112.70 33L112.70 7.54ZM128.54 33.38L128.54 33.38Q125.62 33.38 123.50 32.18Q121.38 30.98 120.24 28.78Q119.11 26.57 119.11 23.55L119.11 23.55Q119.11 20.59 120.23 18.37Q121.36 16.15 123.43 14.90Q125.50 13.65 128.28 13.65L128.28 13.65Q130.16 13.65 131.79 14.25Q133.41 14.85 134.64 16.06Q135.87 17.26 136.56 19.07Q137.25 20.88 137.25 23.34L137.25 23.34L137.25 24.78L121.21 24.78L121.21 21.57L134.74 21.57L132.35 22.42Q132.35 20.93 131.90 19.83Q131.44 18.73 130.55 18.12Q129.65 17.52 128.32 17.52L128.32 17.52Q127.00 17.52 126.07 18.13Q125.14 18.75 124.66 19.80Q124.18 20.85 124.18 22.20L124.18 22.20L124.18 24.47Q124.18 26.13 124.74 27.26Q125.29 28.39 126.29 28.95Q127.29 29.51 128.62 29.51L128.62 29.51Q129.53 29.51 130.27 29.26Q131.00 29.00 131.52 28.50Q132.04 27.99 132.32 27.26L132.32 27.26L136.96 28.13Q136.50 29.70 135.36 30.89Q134.21 32.08 132.50 32.73Q130.78 33.38 128.54 33.38ZM153.95 33.38L153.95 33.38Q150.89 33.38 148.62 32.44Q146.36 31.50 145.09 29.65Q143.83 27.80 143.76 25.10L143.76 25.10L148.84 25.10Q148.94 26.39 149.61 27.25Q150.27 28.11 151.38 28.54Q152.49 28.97 153.90 28.97L153.90 28.97Q155.30 28.97 156.33 28.57Q157.37 28.16 157.95 27.43Q158.53 26.69 158.53 25.72L158.53 25.72Q158.53 24.85 158.01 24.26Q157.49 23.67 156.51 23.24Q155.54 22.81 154.14 22.49L154.14 22.49L151.33 21.79Q148.10 21.00 146.27 19.32Q144.45 17.64 144.45 14.87L144.45 14.87Q144.45 12.56 145.68 10.83Q146.92 9.11 149.09 8.15Q151.25 7.19 154.02 7.19L154.02 7.19Q156.84 7.19 158.94 8.16Q161.04 9.13 162.22 10.84Q163.40 12.56 163.43 14.80L163.43 14.80L158.39 14.80Q158.25 13.26 157.08 12.42Q155.91 11.59 153.96 11.59L153.96 11.59Q152.65 11.59 151.71 11.96Q150.77 12.34 150.27 13.00Q149.78 13.67 149.78 14.53L149.78 14.53Q149.78 15.47 150.35 16.09Q150.92 16.71 151.85 17.10Q152.79 17.48 153.86 17.74L153.86 17.74L156.17 18.30Q157.78 18.66 159.16 19.28Q160.54 19.89 161.59 20.79Q162.63 21.69 163.20 22.92Q163.77 24.15 163.77 25.75L163.77 25.75Q163.77 28.06 162.61 29.78Q161.45 31.50 159.25 32.44Q157.04 33.38 153.95 33.38ZM173.68 33.38L173.68 33.38Q170.80 33.38 168.70 32.14Q166.61 30.90 165.47 28.68Q164.34 26.47 164.34 23.53L164.34 23.53Q164.34 20.56 165.47 18.35Q166.61 16.13 168.70 14.89Q170.80 13.65 173.68 13.65L173.68 13.65Q175.38 13.65 176.81 14.10Q178.25 14.54 179.36 15.36Q180.47 16.18 181.19 17.36Q181.90 18.54 182.18 20.01L182.18 20.01L177.41 20.90Q177.26 20.15 176.93 19.56Q176.61 18.97 176.15 18.55Q175.68 18.13 175.08 17.91Q174.47 17.69 173.74 17.69L173.74 17.69Q172.37 17.69 171.44 18.42Q170.51 19.16 170.04 20.47Q169.57 21.79 169.57 23.52L169.57 23.52Q169.57 25.22 170.04 26.53Q170.51 27.84 171.44 28.59Q172.37 29.34 173.74 29.34L173.74 29.34Q174.47 29.34 175.09 29.11Q175.70 28.88 176.18 28.45Q176.66 28.01 176.98 27.39Q177.31 26.78 177.44 26.01L177.44 26.01L182.21 26.88Q181.94 28.40 181.22 29.59Q180.50 30.78 179.39 31.63Q178.28 32.49 176.84 32.93Q175.39 33.38 173.68 33.38ZM188.58 21.94L188.58 21.94L188.58 33L183.46 33L183.46 7.54L188.48 7.54L188.48 18.66L188.07 18.66Q188.82 16.27 190.35 14.96Q191.88 13.65 194.31 13.65L194.31 13.65Q196.29 13.65 197.77 14.52Q199.25 15.38 200.06 17.00Q200.87 18.61 200.87 20.85L200.87 20.85L200.87 33L195.75 33L195.75 21.74Q195.75 19.96 194.83 18.95Q193.92 17.94 192.29 17.94L192.29 17.94Q191.22 17.94 190.37 18.41Q189.52 18.88 189.05 19.77Q188.58 20.66 188.58 21.94ZM211.52 33.38L211.52 33.38Q208.65 33.38 206.54 32.14Q204.44 30.90 203.31 28.68Q202.17 26.47 202.17 23.53L202.17 23.53Q202.17 20.56 203.31 18.35Q204.44 16.13 206.54 14.89Q208.65 13.65 211.52 13.65L211.52 13.65Q214.41 13.65 216.50 14.89Q218.59 16.13 219.73 18.35Q220.87 20.56 220.87 23.53L220.87 23.53Q220.87 26.47 219.73 28.68Q218.59 30.90 216.50 32.14Q214.41 33.38 211.52 33.38ZM211.52 29.34L211.52 29.34Q212.88 29.34 213.81 28.58Q214.73 27.82 215.19 26.50Q215.65 25.17 215.65 23.52L215.65 23.52Q215.65 21.82 215.19 20.51Q214.73 19.19 213.81 18.44Q212.88 17.69 211.52 17.69L211.52 17.69Q210.15 17.69 209.24 18.44Q208.32 19.19 207.86 20.51Q207.40 21.82 207.40 23.52L207.40 23.52Q207.40 25.17 207.86 26.50Q208.32 27.82 209.24 28.58Q210.15 29.34 211.52 29.34ZM230.71 33.38L230.71 33.38Q227.84 33.38 225.73 32.14Q223.63 30.90 222.50 28.68Q221.36 26.47 221.36 23.53L221.36 23.53Q221.36 20.56 222.50 18.35Q223.63 16.13 225.73 14.89Q227.84 13.65 230.71 13.65L230.71 13.65Q233.60 13.65 235.69 14.89Q237.78 16.13 238.92 18.35Q240.05 20.56 240.05 23.53L240.05 23.53Q240.05 26.47 238.92 28.68Q237.78 30.90 235.69 32.14Q233.60 33.38 230.71 33.38ZM230.71 29.34L230.71 29.34Q232.07 29.34 233.00 28.58Q233.92 27.82 234.38 26.50Q234.84 25.17 234.84 23.52L234.84 23.52Q234.84 21.82 234.38 20.51Q233.92 19.19 233.00 18.44Q232.07 17.69 230.71 17.69L230.71 17.69Q229.34 17.69 228.43 18.44Q227.51 19.19 227.05 20.51Q226.59 21.82 226.59 23.52L226.59 23.52Q226.59 25.17 227.05 26.50Q227.51 27.82 228.43 28.58Q229.34 29.34 230.71 29.34ZM241.35 7.54L246.48 7.54L246.48 33L241.35 33L241.35 7.54Z"/></g>
        
      </svg>
    